<?xml version="1.0" encoding="UTF-8"?>
<!DOCTYPE svg PUBLIC "-//W3C//DTD SVG 1.1//EN" "http://www.w3.org/Graphics/SVG/1.1/DTD/svg11.dtd">
<svg xmlns="http://www.w3.org/2000/svg" version="1.1" width="512px" height="512px" style="shape-rendering:geometricPrecision; text-rendering:geometricPrecision; image-rendering:optimizeQuality; fill-rule:evenodd; clip-rule:evenodd" xmlns:xlink="http://www.w3.org/1999/xlink">
<g><path style="opacity:0.986" fill="#000000" d="M 164.5,23.5 C 202.698,19.6439 231.031,34.3105 249.5,67.5C 253.5,71.5 257.5,71.5 261.5,67.5C 281.824,32.3425 312.157,18.1759 352.5,25C 384.636,33.1345 406.803,52.6345 419,83.5C 428.08,119.61 423.246,153.776 404.5,186C 403.833,186.667 403.167,186.667 402.5,186C 401.54,184.581 400.707,183.081 400,181.5C 399.743,177.623 398.743,173.957 397,170.5C 395.352,169.283 393.519,168.45 391.5,168C 364.833,167.333 338.167,167.333 311.5,168C 309.754,168.471 308.087,169.138 306.5,170C 304.509,175.101 302.676,180.268 301,185.5C 299.062,188.106 296.562,189.939 293.5,191C 289.623,191.257 285.957,192.257 282.5,194C 281.283,195.648 280.45,197.481 280,199.5C 277.221,223.663 281.387,246.497 292.5,268C 280.511,274.996 268.177,281.496 255.5,287.5C 222.691,271.168 190.024,254.668 157.5,238C 119.489,214.508 96.4886,180.674 88.5,136.5C 74.8496,135.501 61.1829,135.167 47.5,135.5C 47.5,130.167 47.5,124.833 47.5,119.5C 60.8333,119.5 74.1667,119.5 87.5,119.5C 86.815,75.3654 106.815,44.8654 147.5,28C 153.253,26.3137 158.919,24.8137 164.5,23.5 Z M 148.5,88.5 C 153.772,87.5491 157.272,89.5491 159,94.5C 167.469,122.239 176.135,149.905 185,177.5C 193.098,158.805 201.598,140.305 210.5,122C 212.087,121.138 213.754,120.471 215.5,120C 234.164,119.5 252.83,119.333 271.5,119.5C 271.5,124.833 271.5,130.167 271.5,135.5C 254.154,135.167 236.821,135.5 219.5,136.5C 209.608,159.285 199.441,181.952 189,204.5C 184.659,207.448 180.659,207.115 177,203.5C 169.051,176.989 160.718,150.656 152,124.5C 151.626,130.12 148.793,133.62 143.5,135C 125.503,135.5 107.503,135.667 89.5,135.5C 88.9022,130.187 88.5688,124.854 88.5,119.5C 104.837,119.667 121.17,119.5 137.5,119C 139.894,110.927 142.06,102.76 144,94.5C 144.804,91.8541 146.304,89.8541 148.5,88.5 Z"/></g>
<g><path style="opacity:0.98" fill="#000000" d="M 317.5,183.5 C 340.167,183.5 362.833,183.5 385.5,183.5C 388.5,195.167 395.833,202.5 407.5,205.5C 411.946,237.688 401.612,263.855 376.5,284C 368.925,289.454 360.591,293.287 351.5,295.5C 320.999,286.163 302.499,265.829 296,234.5C 295.5,224.839 295.334,215.172 295.5,205.5C 307.167,202.5 314.5,195.167 317.5,183.5 Z M 343.5,207.5 C 348.833,207.5 354.167,207.5 359.5,207.5C 359.5,215.5 359.5,223.5 359.5,231.5C 367.5,231.5 375.5,231.5 383.5,231.5C 383.5,236.833 383.5,242.167 383.5,247.5C 375.5,247.5 367.5,247.5 359.5,247.5C 359.5,255.5 359.5,263.5 359.5,271.5C 354.167,271.5 348.833,271.5 343.5,271.5C 343.5,263.5 343.5,255.5 343.5,247.5C 335.5,247.5 327.5,247.5 319.5,247.5C 319.5,242.167 319.5,236.833 319.5,231.5C 327.5,231.5 335.5,231.5 343.5,231.5C 343.5,223.5 343.5,215.5 343.5,207.5 Z"/></g>
<g><path style="opacity:0.985" fill="#000000" d="M 166.5,319.5 C 180.266,318.946 193.933,319.779 207.5,322C 220.518,325.339 233.184,329.672 245.5,335C 254.046,337.509 262.712,339.509 271.5,341C 294.784,342.962 318.118,343.962 341.5,344C 350.482,348.473 353.649,355.64 351,365.5C 349.167,370 346,373.167 341.5,375C 304.835,375.5 268.168,375.667 231.5,375.5C 231.5,380.833 231.5,386.167 231.5,391.5C 268.531,391.955 305.531,391.455 342.5,390C 355.371,386.629 363.371,378.462 366.5,365.5C 398.269,352.519 430.269,340.019 462.5,328C 480.337,325.175 488.504,332.675 487,350.5C 486.3,354.066 484.467,356.9 481.5,359C 428.833,389.667 376.167,420.333 323.5,451C 290.929,465.296 257.596,467.296 223.5,457C 204.833,449.667 186.167,442.333 167.5,435C 135.955,427.626 109.455,436.126 88,460.5C 87.1668,425.162 87.3334,389.829 88.5,354.5C 101.168,346.164 114.168,338.33 127.5,331C 140.122,325.433 153.122,321.6 166.5,319.5 Z"/></g>
<g><path style="opacity:1" fill="#000000" d="M 23.5,327.5 C 39.5,327.5 55.5,327.5 71.5,327.5C 71.5,380.833 71.5,434.167 71.5,487.5C 55.5,487.5 39.5,487.5 23.5,487.5C 23.5,434.167 23.5,380.833 23.5,327.5 Z"/></g>
</svg>
