<?xml version="1.0" encoding="UTF-8"?>
<!DOCTYPE svg PUBLIC "-//W3C//DTD SVG 1.1//EN" "http://www.w3.org/Graphics/SVG/1.1/DTD/svg11.dtd">
<svg xmlns="http://www.w3.org/2000/svg" version="1.1" width="512px" height="512px" style="shape-rendering:geometricPrecision; text-rendering:geometricPrecision; image-rendering:optimizeQuality; fill-rule:evenodd; clip-rule:evenodd" xmlns:xlink="http://www.w3.org/1999/xlink">
<g><path style="opacity:0.974" fill="#000000" d="M 60.5,-0.5 C 64.1667,-0.5 67.8333,-0.5 71.5,-0.5C 75.9053,1.41184 78.7387,4.74518 80,9.5C 80.4999,27.8303 80.6666,46.1636 80.5,64.5C 104.5,64.5 128.5,64.5 152.5,64.5C 152.333,46.8302 152.5,29.1635 153,11.5C 154.107,6.23408 156.94,2.23408 161.5,-0.5C 165.167,-0.5 168.833,-0.5 172.5,-0.5C 176.905,1.41184 179.739,4.74518 181,9.5C 181.5,27.8303 181.667,46.1636 181.5,64.5C 205.5,64.5 229.5,64.5 253.5,64.5C 253.333,46.4969 253.5,28.4969 254,10.5C 255.416,5.63632 258.249,1.96966 262.5,-0.5C 266.167,-0.5 269.833,-0.5 273.5,-0.5C 277.905,1.41184 280.739,4.74518 282,9.5C 282.5,27.8303 282.667,46.1636 282.5,64.5C 306.5,64.5 330.5,64.5 354.5,64.5C 354.333,46.4969 354.5,28.4969 355,10.5C 356.416,5.63632 359.249,1.96966 363.5,-0.5C 367.167,-0.5 370.833,-0.5 374.5,-0.5C 376.151,0.970083 377.985,2.30342 380,3.5C 381,5.5 382,7.5 383,9.5C 383.5,27.8303 383.667,46.1636 383.5,64.5C 392.839,64.3335 402.173,64.5002 411.5,65C 417.616,67.4511 421.116,71.9511 422,78.5C 422.5,98.1638 422.667,117.831 422.5,137.5C 286.167,137.5 149.833,137.5 13.5,137.5C 13.033,115.767 13.533,94.1002 15,72.5C 17.1241,68.687 20.2908,66.187 24.5,65C 33.4938,64.5002 42.4938,64.3336 51.5,64.5C 51.3334,47.1635 51.5001,29.8301 52,12.5C 52.6479,6.69467 55.4812,2.36134 60.5,-0.5 Z M 52.5,66.5 C 61.5,66.5 70.5,66.5 79.5,66.5C 79.6664,74.1739 79.4997,81.8406 79,89.5C 75.0374,98.3928 68.5374,100.893 59.5,97C 57.0833,95.3374 55.25,93.1707 54,90.5C 52.6785,82.5607 52.1785,74.5607 52.5,66.5 Z M 153.5,66.5 C 162.5,66.5 171.5,66.5 180.5,66.5C 180.906,74.9174 180.406,83.2508 179,91.5C 174.513,98.5495 168.346,100.383 160.5,97C 158.083,95.3374 156.25,93.1707 155,90.5C 153.637,82.5705 153.137,74.5705 153.5,66.5 Z M 254.5,66.5 C 263.5,66.5 272.5,66.5 281.5,66.5C 281.906,74.9174 281.406,83.2508 280,91.5C 273.841,99.8409 266.674,101.008 258.5,95C 257.54,93.5806 256.707,92.0806 256,90.5C 254.599,82.5852 254.099,74.5852 254.5,66.5 Z M 355.5,66.5 C 364.5,66.5 373.5,66.5 382.5,66.5C 382.906,74.9174 382.406,83.2508 381,91.5C 373,102.167 365,102.167 357,91.5C 355.594,83.2508 355.094,74.9174 355.5,66.5 Z"/></g>
<g><path style="opacity:0.986" fill="#000000" d="M 13.5,164.5 C 149.833,164.5 286.167,164.5 422.5,164.5C 422.5,195.833 422.5,227.167 422.5,258.5C 367.715,245.11 320.048,257.777 279.5,296.5C 274.474,294.044 269.14,293.044 263.5,293.5C 257.961,293.207 252.628,294.041 247.5,296C 240.403,302.432 239.737,309.432 245.5,317C 250.126,319.684 255.126,321.184 260.5,321.5C 239.301,357.56 233.968,395.893 244.5,436.5C 172.166,436.667 99.8326,436.5 27.5,436C 20.5263,435.023 16.0263,431.19 14,424.5C 13.5,337.834 13.3333,251.167 13.5,164.5 Z M 162.5,223.5 C 168.842,223.334 175.175,223.5 181.5,224C 192.526,226.884 196.026,233.717 192,244.5C 190.062,247.106 187.562,248.939 184.5,250C 176.167,250.667 167.833,250.667 159.5,250C 152.001,246.501 149.167,240.667 151,232.5C 153.568,227.753 157.401,224.753 162.5,223.5 Z M 253.5,223.5 C 259.842,223.334 266.175,223.5 272.5,224C 283.985,226.804 287.485,233.638 283,244.5C 281.062,247.106 278.562,248.939 275.5,250C 267.5,250.667 259.5,250.667 251.5,250C 243.571,247.314 240.404,241.814 242,233.5C 244.21,228.112 248.043,224.779 253.5,223.5 Z M 345.5,223.5 C 351.509,223.334 357.509,223.501 363.5,224C 374.389,226.271 378.222,232.771 375,243.5C 372.713,246.462 369.88,248.629 366.5,250C 357.424,250.913 348.424,250.58 339.5,249C 331.046,242.299 330.379,234.966 337.5,227C 340.025,225.281 342.692,224.114 345.5,223.5 Z M 166.5,283.5 C 180.205,281.932 189.372,287.598 194,300.5C 195.479,320.354 186.313,329.521 166.5,328C 150.226,321.185 145.726,309.685 153,293.5C 156.579,288.731 161.079,285.397 166.5,283.5 Z M 71.5,293.5 C 77.8421,293.334 84.1754,293.5 90.5,294C 101.977,297.419 105.144,304.585 100,315.5C 98.0478,317.894 95.5478,319.394 92.5,320C 84.5,320.667 76.5,320.667 68.5,320C 57.7028,314.282 56.0362,306.616 63.5,297C 66.1579,295.522 68.8245,294.355 71.5,293.5 Z M 71.5,363.5 C 77.8421,363.334 84.1754,363.5 90.5,364C 101.977,367.419 105.144,374.585 100,385.5C 98.0478,387.894 95.5478,389.394 92.5,390C 84.5,390.667 76.5,390.667 68.5,390C 57.6807,384.228 56.014,376.561 63.5,367C 66.1579,365.522 68.8245,364.355 71.5,363.5 Z M 162.5,363.5 C 168.842,363.334 175.175,363.5 181.5,364C 193.26,367.355 196.427,374.521 191,385.5C 189.269,387.617 187.102,389.117 184.5,390C 176.5,390.667 168.5,390.667 160.5,390C 152.263,387.032 149.096,381.198 151,372.5C 153.568,367.753 157.401,364.753 162.5,363.5 Z"/></g>
<g><path style="opacity:0.971" fill="#000000" d="M 396.5,511.5 C 386.5,511.5 376.5,511.5 366.5,511.5C 313.831,501.668 280.997,470.668 268,418.5C 260.502,367.013 278.002,326.513 320.5,297C 360.62,274.104 400.954,273.771 441.5,296C 489.105,328.448 506.272,372.948 493,429.5C 476.835,475.843 444.668,503.177 396.5,511.5 Z M 400.5,299.5 C 407.796,298.565 413.296,301.232 417,307.5C 421.333,316.833 425.667,326.167 430,335.5C 431.195,340.6 430.362,345.267 427.5,349.5C 417.178,355.72 406.178,360.387 394.5,363.5C 383.177,361.837 379.177,355.504 382.5,344.5C 362.994,343.672 348.161,351.672 338,368.5C 335.449,372.935 333.449,377.601 332,382.5C 330.909,390.241 329.576,397.908 328,405.5C 318.63,415.323 310.63,414.323 304,402.5C 303.199,365.986 319.032,339.486 351.5,323C 364.213,317.407 377.379,315.574 391,317.5C 390.328,309.269 393.495,303.269 400.5,299.5 Z M 444.5,397.5 C 455.462,397.959 460.629,403.626 460,414.5C 447.665,461.748 417.165,483.581 368.5,480C 363.357,478.964 358.357,477.464 353.5,475.5C 347.199,485.805 339.366,487.138 330,479.5C 325.729,468.085 322.229,456.419 319.5,444.5C 320.173,439.654 322.506,435.821 326.5,433C 337.093,430.512 347.759,428.345 358.5,426.5C 366.569,427.401 371.235,431.901 372.5,440C 371.945,444.611 369.945,448.444 366.5,451.5C 396.375,458.814 417.875,448.48 431,420.5C 432.489,415.543 433.822,410.543 435,405.5C 437.161,401.495 440.328,398.829 444.5,397.5 Z"/></g>
</svg>
