<?xml version="1.0" standalone="no"?>
<!DOCTYPE svg PUBLIC "-//W3C//DTD SVG 20010904//EN"
 "http://www.w3.org/TR/2001/REC-SVG-20010904/DTD/svg10.dtd">
<svg version="1.0" xmlns="http://www.w3.org/2000/svg"
 width="500.000000pt" height="500.000000pt" viewBox="0 0 500.000000 500.000000"
 preserveAspectRatio="xMidYMid meet">

<g transform="translate(0.000000,500.000000) scale(0.100000,-0.100000)"
fill="#000000" stroke="none">
<path d="M1543 1728 c-8 -10 -81 -167 -110 -235 -3 -8 2 -13 11 -13 10 0 23
15 32 35 l14 35 70 0 70 0 14 -35 c8 -19 22 -35 30 -35 9 0 16 2 16 3 0 6
-104 230 -113 245 -5 6 -12 12 -16 12 -5 0 -13 -6 -18 -12z m51 -100 l26 -58
-60 0 -60 0 16 38 c9 20 21 49 27 64 14 34 19 29 51 -44z"/>
<path d="M1760 1611 l0 -131 69 0 c78 0 127 14 141 40 16 29 12 49 -14 75 -20
20 -22 26 -10 36 20 16 17 63 -5 83 -12 11 -44 18 -100 23 l-81 6 0 -132z
m158 87 c7 -7 12 -22 12 -35 0 -29 -32 -43 -96 -43 l-44 0 0 45 0 45 58 0 c32
0 63 -5 70 -12z m12 -118 c24 -24 25 -34 4 -54 -11 -11 -35 -16 -80 -16 l-64
0 0 45 0 45 60 0 c47 0 64 -4 80 -20z"/>
<path d="M2067 1734 c-4 -4 -7 -63 -7 -131 0 -117 1 -123 20 -123 20 0 20 5
18 127 -3 117 -10 148 -31 127z"/>
<path d="M2208 1734 c-5 -4 -8 -63 -8 -132 l0 -124 90 4 c68 3 94 8 110 23 25
23 26 67 1 89 -17 16 -18 20 -5 45 17 33 6 74 -22 85 -28 11 -158 19 -166 10z
m159 -51 c13 -19 12 -24 -6 -42 -16 -16 -34 -21 -71 -21 l-50 0 0 45 0 46 56
-3 c45 -2 60 -7 71 -25z m1 -99 c24 -17 29 -43 10 -62 -7 -7 -39 -12 -75 -12
l-63 0 0 45 0 45 53 0 c31 0 61 -6 75 -16z"/>
<path d="M2510 1610 c0 -109 2 -130 15 -130 13 0 15 21 15 130 0 109 -2 130
-15 130 -13 0 -15 -21 -15 -130z"/>
<path d="M2650 1610 c0 -107 3 -130 15 -130 11 0 15 19 17 93 l3 92 45 -77
c25 -43 47 -78 50 -78 3 0 26 34 50 75 24 41 48 75 52 75 5 0 8 -40 8 -90 0
-77 2 -90 16 -90 15 0 16 11 10 92 -3 50 -6 108 -6 130 0 21 -4 38 -9 38 -5 0
-33 -40 -62 -90 -28 -49 -54 -90 -58 -90 -3 0 -30 41 -59 90 -29 50 -57 90
-62 90 -6 0 -10 -54 -10 -130z"/>
<path d="M3086 1708 c-8 -18 -35 -77 -60 -130 -39 -86 -43 -98 -26 -98 12 0
22 12 30 35 l12 35 69 0 69 0 17 -35 c15 -31 43 -49 43 -27 0 24 -112 247
-125 250 -10 2 -21 -9 -29 -30z m78 -115 c7 -22 5 -23 -49 -23 -64 0 -63 -3
-23 88 l21 46 22 -45 c12 -24 26 -54 29 -66z"/>
<path d="M3320 1610 c0 -107 3 -130 15 -130 11 0 15 20 17 96 l3 96 75 -95
c41 -53 81 -96 88 -97 9 0 12 32 12 130 0 107 -3 130 -15 130 -11 0 -15 -20
-17 -97 l-3 -97 -78 97 c-43 53 -82 97 -87 97 -6 0 -10 -53 -10 -130z"/>
<path d="M1882 1323 c12 -3 18 -18 21 -51 l3 -47 2 47 c2 35 6 48 20 51 9 3
-1 5 -23 5 -22 0 -32 -2 -23 -5z"/>
<path d="M2000 1280 l0 -50 38 2 c36 1 36 1 5 5 -31 4 -33 7 -33 43 0 35 3 39
28 43 25 4 25 4 -5 6 l-33 1 0 -50z"/>
<path d="M2132 1283 l-2 -53 33 1 c29 2 29 2 5 6 -24 4 -27 9 -31 51 l-3 47
-2 -52z"/>
<path d="M2250 1280 l0 -50 38 2 c36 1 36 1 5 5 -31 4 -33 7 -33 43 0 35 3 39
28 43 25 4 25 4 -5 6 l-33 1 0 -50z"/>
<path d="M2383 1280 c0 -30 2 -43 4 -27 2 15 2 39 0 55 -2 15 -4 2 -4 -28z"/>
<path d="M2453 1280 c0 -30 2 -43 4 -27 2 15 2 39 0 55 -2 15 -4 2 -4 -28z"/>
<path d="M2530 1280 l0 -50 38 2 c36 1 36 1 5 5 -31 4 -33 7 -33 43 0 35 3 39
28 43 25 4 25 4 -5 6 l-33 1 0 -50z"/>
<path d="M2687 1316 c-4 -10 -3 -14 2 -11 6 3 14 -3 20 -12 6 -10 11 -13 11
-7 0 5 -6 18 -13 28 -13 17 -14 18 -20 2z"/>
<path d="M2802 1283 l-2 -53 33 1 c29 2 29 2 5 6 -24 4 -27 9 -31 51 l-3 47
-2 -52z"/>
<path d="M2922 1323 c12 -3 18 -18 21 -51 l3 -47 2 47 c2 35 6 48 20 51 9 3
-1 5 -23 5 -22 0 -32 -2 -23 -5z"/>
<path d="M3043 1280 c0 -30 2 -43 4 -27 2 15 2 39 0 55 -2 15 -4 2 -4 -28z"/>
<path d="M3113 1280 c0 -30 2 -43 4 -27 2 15 2 39 0 55 -2 15 -4 2 -4 -28z"/>
<path d="M2662 1266 c-17 -37 -15 -45 4 -18 8 12 14 27 12 33 -2 6 -9 -1 -16
-15z"/>
<path d="M2720 1265 c0 -5 5 -17 10 -25 5 -8 10 -10 10 -5 0 6 -5 17 -10 25
-5 8 -10 11 -10 5z"/>
</g>
</svg>
